REM DIRINDEX 1\2,1\3,1\4,1\5,1\6
REM DIRNAME folder01,folder02,folder03,folder04,folder05,folder06
TITLE ""
FILE "DISC2Track31.mp3" MP3
  TRACK 01 AUDIO
    TITLE "0:"
    INDEX 01 00:00:00
  TRACK 02 AUDIO
    TITLE "3:cjc129_1901"
    INDEX 01 00:00:05
  TRACK 03 AUDIO
    TITLE "0:"
    INDEX 01 00:03:57
  TRACK 04 AUDIO
    TITLE "5:cjc129_1902"
    INDEX 01 00:04:15
  TRACK 05 AUDIO
    TITLE "0:"
    INDEX 01 00:06:12
  TRACK 06 AUDIO
    TITLE "4:cjc129_1903"
    INDEX 01 00:07:02
  TRACK 07 AUDIO
    TITLE "0:"
    INDEX 01 00:10:55
  TRACK 08 AUDIO
    TITLE "6:cjc129_1904"
    INDEX 01 00:11:11
  TRACK 09 AUDIO
    TITLE "0:"
    INDEX 01 00:15:25
  TRACK 10 AUDIO
    TITLE "3:cjc129_1905"
    INDEX 01 00:17:04
  TRACK 11 AUDIO
    TITLE "0:"
    INDEX 01 00:20:36
  TRACK 12 AUDIO
    TITLE "5:cjc129_1906"
    INDEX 01 00:20:69
  TRACK 13 AUDIO
    TITLE "0:"
    INDEX 01 00:24:67
  TRACK 14 AUDIO
    TITLE "4:cjc129_1907"
    INDEX 01 00:25:60
  TRACK 15 AUDIO
    TITLE "0:"
    INDEX 01 00:29:17
  TRACK 16 AUDIO
    TITLE "6:cjc129_1908"
    INDEX 01 00:29:50
  TRACK 17 AUDIO
    TITLE "0:"
    INDEX 01 00:35:17
  TRACK 18 AUDIO
    TITLE "3:cjc129_1909"
    INDEX 01 00:36:68
  TRACK 19 AUDIO
    TITLE "0:"
    INDEX 01 00:38:41
  TRACK 20 AUDIO
    TITLE "5:cjc129_1910"
    INDEX 01 00:39:00
  TRACK 21 AUDIO
    TITLE "0:"
    INDEX 01 00:40:42
  TRACK 22 AUDIO
    TITLE "4:cjc129_1911"
    INDEX 01 00:41:34
  TRACK 23 AUDIO
    TITLE "0:"
    INDEX 01 00:43:07
  TRACK 24 AUDIO
    TITLE "6:cjc129_1912"
    INDEX 01 00:43:39
  TRACK 25 AUDIO
    TITLE "0:"
    INDEX 01 00:49:14
  TRACK 26 AUDIO
    TITLE "3:cjc129_1913"
    INDEX 01 00:50:68
  TRACK 27 AUDIO
    TITLE "0:"
    INDEX 01 00:52:26
  TRACK 28 AUDIO
    TITLE "5:cjc129_1914"
    INDEX 01 00:52:57
  TRACK 29 AUDIO
    TITLE "0:"
    INDEX 01 00:54:05
  TRACK 30 AUDIO
    TITLE "4:cjc129_1915"
    INDEX 01 00:54:72
  TRACK 31 AUDIO
    TITLE "0:"
    INDEX 01 00:56:29
  TRACK 32 AUDIO
    TITLE "6:cjc129_1916"
    INDEX 01 00:56:61
  TRACK 33 AUDIO
    TITLE "0:"
    INDEX 01 01:00:60
  TRACK 34 AUDIO
    TITLE "3:cjc129_1917"
    INDEX 01 01:02:36
  TRACK 35 AUDIO
    TITLE "0:"
    INDEX 01 01:03:65
  TRACK 36 AUDIO
    TITLE "5:cjc129_1918"
    INDEX 01 01:04:23
  TRACK 37 AUDIO
    TITLE "0:"
    INDEX 01 01:08:60
  TRACK 38 AUDIO
    TITLE "4:cjc129_1919"
    INDEX 01 01:09:50
  TRACK 39 AUDIO
    TITLE "0:"
    INDEX 01 01:11:07
  TRACK 40 AUDIO
    TITLE "6:cjc129_1920"
    INDEX 01 01:11:37
  TRACK 41 AUDIO
    TITLE "0:"
    INDEX 01 01:15:39
  TRACK 42 AUDIO
    TITLE "3:cjc129_1921"
    INDEX 01 01:17:16
  TRACK 43 AUDIO
    TITLE "0:"
    INDEX 01 01:18:31
  TRACK 44 AUDIO
    TITLE "5:cjc129_1922"
    INDEX 01 01:18:64
  TRACK 45 AUDIO
    TITLE "0:"
    INDEX 01 01:21:33
  TRACK 46 AUDIO
    TITLE "4:cjc129_1923"
    INDEX 01 01:22:23
  TRACK 47 AUDIO
    TITLE "0:"
    INDEX 01 01:23:38
  TRACK 48 AUDIO
    TITLE "6:cjc129_1924"
    INDEX 01 01:23:71
  TRACK 49 AUDIO
    TITLE "0:"
    INDEX 01 01:28:39
  TRACK 50 AUDIO
    TITLE "3:cjc129_1925"
    INDEX 01 01:30:11
  TRACK 51 AUDIO
    TITLE "0:"
    INDEX 01 01:31:69
  TRACK 52 AUDIO
    TITLE "5:cjc129_1926"
    INDEX 01 01:32:25
  TRACK 53 AUDIO
    TITLE "0:"
    INDEX 01 01:34:44
  TRACK 54 AUDIO
    TITLE "4:cjc129_1927"
    INDEX 01 01:35:33
  TRACK 55 AUDIO
    TITLE "0:"
    INDEX 01 01:37:15
  TRACK 56 AUDIO
    TITLE "6:cjc129_1928"
    INDEX 01 01:37:48
  TRACK 57 AUDIO
    TITLE "0:"
    INDEX 01 01:43:31
  TRACK 58 AUDIO
    TITLE "3:cjc129_1929"
    INDEX 01 01:45:06
  TRACK 59 AUDIO
    TITLE "0:"
    INDEX 01 01:46:29
  TRACK 60 AUDIO
    TITLE "5:cjc129_1930"
    INDEX 01 01:46:61
  TRACK 61 AUDIO
    TITLE "0:"
    INDEX 01 01:49:41
  TRACK 62 AUDIO
    TITLE "4:cjc129_1931"
    INDEX 01 01:50:33
  TRACK 63 AUDIO
    TITLE "0:"
    INDEX 01 01:51:56
  TRACK 64 AUDIO
    TITLE "6:cjc129_1932"
    INDEX 01 01:52:10
  TRACK 65 AUDIO
    TITLE "0:"
    INDEX 01 01:56:55
  TRACK 66 AUDIO
    TITLE "3:cjc129_1933"
    INDEX 01 01:58:30
  TRACK 67 AUDIO
    TITLE "0:"
    INDEX 01 01:59:46
  TRACK 68 AUDIO
    TITLE "5:cjc129_1934"
    INDEX 01 02:00:04
  TRACK 69 AUDIO
    TITLE "0:"
    INDEX 01 02:02:24
  TRACK 70 AUDIO
    TITLE "4:cjc129_1935"
    INDEX 01 02:03:14
  TRACK 71 AUDIO
    TITLE "0:"
    INDEX 01 02:04:33
  TRACK 72 AUDIO
    TITLE "6:cjc129_1936"
    INDEX 01 02:04:64
  TRACK 73 AUDIO
    TITLE "0:"
    INDEX 01 02:09:30
